<svg xmlns="http://www.w3.org/2000/svg" width="232" height="30" fill="none" viewBox="0 0 232 30"><g clip-path="url(#a)"><path fill="#4c39ff" d="M52.469 19.035c.23-.096.428-.188.618-.281 1.689-.844 3.01-2.025 3.928-3.508.916-1.483 1.382-3.172 1.382-5.025s-.465-3.542-1.382-5.025c-.918-1.483-2.24-2.662-3.928-3.508C51.402.848 49.422.421 47.202.421H35.65c-.97 0-1.753.759-1.753 1.694v25.844c0 .815.657 1.487 1.498 1.532a45 45 0 0 0 4.607 0c.846-.045 1.508-.715 1.508-1.532V20.02h.86a3.16 3.16 0 0 1 2.637 1.385l4.928 7.345c.271.405.727.667 1.226.695a64 64 0 0 0 3.6.103h.22a63 63 0 0 0 2.821-.072c.315-.017.623-.164.783-.429a.85.85 0 0 0-.02-.923l-6.097-9.093zm-1.94-8.896a3.2 3.2 0 0 1-.416 1.612 2.9 2.9 0 0 1-1.159 1.12c-.499.267-1.088.403-1.75.403h-5.031a.645.645 0 0 1-.657-.635V7.602c0-.352.293-.635.657-.635h5.031c.662 0 1.253.136 1.75.403a2.9 2.9 0 0 1 1.159 1.12 3.3 3.3 0 0 1 .417 1.651zm62.534-7.816c-2.331-1.263-4.98-1.905-7.874-1.905h-10.75c-.969 0-1.751.759-1.751 1.694v25.595c0 .937.785 1.694 1.752 1.694h10.749c2.894 0 5.545-.64 7.874-1.904 2.332-1.266 4.183-3.02 5.507-5.22 1.321-2.2 1.992-4.679 1.992-7.369s-.671-5.17-1.992-7.368c-1.321-2.197-3.175-3.955-5.507-5.22zm-12.763 5.7c0-.586.49-1.06 1.096-1.06h3.158c1.614 0 3.054.34 4.282 1.013a7.1 7.1 0 0 1 2.848 2.814c.669 1.202 1.008 2.589 1.008 4.123s-.339 2.922-1.008 4.124a7.1 7.1 0 0 1-2.848 2.813c-1.226.673-2.668 1.012-4.282 1.012h-3.158c-.606 0-1.096-.473-1.096-1.059zM133.13.377a91 91 0 0 0-2.257-.028h-.012c-.749 0-1.507.009-2.259.028-.865.02-1.543.696-1.543 1.534V27.92c0 .837.676 1.511 1.539 1.535.729.02 1.471.03 2.2.03h.063c.754 0 1.518-.012 2.271-.03.863-.024 1.539-.698 1.539-1.535V1.911c0-.838-.678-1.513-1.544-1.534zm31.391.043h-21.939c-.841 0-1.539.633-1.585 1.444a32 32 0 0 0 0 3.652c.046.813.744 1.448 1.585 1.448h6.067c.605 0 1.095.473 1.095 1.059v19.949c0 .808.647 1.48 1.474 1.53.695.042 1.4.066 2.098.07h.231c.768 0 1.546-.023 2.314-.07.839-.052 1.496-.724 1.496-1.532V8.023c0-.586.489-1.06 1.095-1.06h6.069c.843 0 1.539-.639 1.585-1.456a32 32 0 0 0 0-3.632c-.046-.817-.744-1.457-1.585-1.457zm66.032 4.96c-.96-1.552-2.339-2.78-4.098-3.65C224.7.86 222.642.421 220.34.421h-11.018c-.875 0-1.588.689-1.588 1.534v25.997c0 .82.664 1.494 1.513 1.532a53 53 0 0 0 2.203.054h.087c.764 0 1.534-.02 2.295-.054.851-.04 1.515-.712 1.515-1.535v-6.286c0-.569.48-1.03 1.066-1.03h3.924c2.332 0 4.402-.427 6.154-1.268 1.76-.843 3.134-2.038 4.079-3.547s1.425-3.254 1.425-5.19c0-1.935-.487-3.699-1.444-5.25zm-6.423 5.168c0 .667-.155 1.279-.458 1.815-.3.532-.749.956-1.325 1.263-.585.307-1.258.464-2.005.464h-4.333a.645.645 0 0 1-.657-.635V7.603c0-.352.293-.635.657-.635h4.333c.747 0 1.423.157 2.005.464a3.2 3.2 0 0 1 1.325 1.262c.306.537.458 1.162.458 1.858zM185.758 0c-8.555 0-15.516 6.729-15.516 15.001 0 8.273 6.961 14.999 15.516 14.999s15.519-6.729 15.519-14.999S194.316 0 185.758 0m8.11 15.001c0 4.323-3.638 7.837-8.107 7.837s-8.107-3.517-8.107-7.837 3.638-7.837 8.107-7.837 8.107 3.517 8.107 7.837M15.51 7.17c1.079 0 2.157.28 2.17.285 1.735.473 2.973 1.453 3.708 2.19a1.62 1.62 0 0 0 2.004.211 25 25 0 0 0 1.98-1.405c.54-.427 1.069-.881 1.568-1.354a1.497 1.497 0 0 0 .058-2.125C25.562 3.467 23.117 1.478 19.636.55A16 16 0 0 0 14.37.049 15.67 15.67 0 0 0 4.38 4.58C1.717 7.24.166 10.72.013 14.378c-.174 4.119 1.358 8.027 4.312 11 2.957 2.977 6.93 4.615 11.185 4.615s8.432-1.75 11.362-4.803a1.5 1.5 0 0 0-.104-2.193 25.3 25.3 0 0 0-3.667-2.622 1.63 1.63 0 0 0-1.929.207 8.26 8.26 0 0 1-3.495 1.968 8 8 0 0 1-2.162.283c-2.91-.051-8.107-2.713-8.107-7.834 0-4.32 3.635-7.835 8.105-7.835z"/><path fill="#05d587" d="M66.868 7.294h14.806c.844 0 1.54-.637 1.585-1.45a36 36 0 0 0 0-3.98c-.046-.811-.741-1.446-1.585-1.446H66.868c-.84 0-1.539.635-1.585 1.446a35 35 0 0 0 0 3.985c.046.81.742 1.445 1.585 1.445m19.365 16.824c-.046-.809-.741-1.441-1.585-1.441h-17.78c-.843 0-1.539.64-1.585 1.455a35 35 0 0 0 0 3.969c.046.815.744 1.452 1.585 1.452h17.78c.844 0 1.542-.642 1.585-1.46a35 35 0 0 0 0-3.973zm-19.365-5.536h9.499c.843 0 1.541-.642 1.585-1.46a36 36 0 0 0 0-3.973c-.046-.809-.742-1.439-1.585-1.439h-9.499c-.843 0-1.539.64-1.585 1.455a35 35 0 0 0 0 3.969c.046.815.744 1.452 1.585 1.452z"/></g><defs><clipPath id="a"><path fill="#fff" d="M0 0h232v30H0z"/></clipPath></defs></svg>